<svg width="327" height="128" viewBox="0 0 327 128" fill="none" xmlns="http://www.w3.org/2000/svg">
<path d="M6.528 25.704H25.632L45.12 65.352L64.512 25.704H83.616V93H68.064L67.968 49.896L50.784 86.28H39.456L22.176 49.896V93H6.528V25.704ZM118.604 25.704H136.652L164.876 93H146.156L127.148 43.272L107.756 93H89.7075L118.604 25.704ZM106.988 67.656H146.252V80.904H106.988V67.656ZM219.68 46.824C217.312 44.456 214.528 42.632 211.328 41.352C208.192 40.008 205.056 39.336 201.92 39.336C199.168 39.336 196.64 39.848 194.336 40.872C192.032 41.896 190.016 43.304 188.288 45.096C186.56 46.888 185.216 49 184.256 51.432C183.36 53.864 182.912 56.488 182.912 59.304C182.912 62.184 183.392 64.84 184.352 67.272C185.312 69.704 186.656 71.848 188.384 73.704C190.112 75.496 192.128 76.904 194.432 77.928C196.8 78.952 199.36 79.464 202.112 79.464C204.544 79.464 207.296 78.888 210.368 77.736C213.504 76.52 216.352 74.952 218.912 73.032L228.896 85.416C226.528 87.08 223.744 88.584 220.544 89.928C217.408 91.272 214.112 92.328 210.656 93.096C207.264 93.864 204 94.248 200.864 94.248C195.744 94.248 190.976 93.384 186.56 91.656C182.208 89.864 178.4 87.4 175.136 84.264C171.872 81.128 169.344 77.416 167.552 73.128C165.76 68.84 164.864 64.232 164.864 59.304C164.864 54.376 165.792 49.8 167.648 45.576C169.504 41.352 172.096 37.672 175.424 34.536C178.816 31.4 182.752 28.968 187.232 27.24C191.776 25.512 196.704 24.648 202.016 24.648C205.344 24.648 208.672 25.064 212 25.896C215.392 26.728 218.592 27.88 221.6 29.352C224.672 30.824 227.36 32.616 229.664 34.728L219.68 46.824ZM213.728 58.728H228.896V85.416H213.728V58.728ZM240.528 25.704H258.096V93H240.528V25.704ZM317.552 45.768C315.184 44.296 312.656 43.048 309.968 42.024C307.344 40.936 304.784 40.104 302.288 39.528C299.856 38.888 297.712 38.568 295.856 38.568C293.744 38.568 292.048 38.984 290.768 39.816C289.488 40.584 288.848 41.8 288.848 43.464C288.848 45.128 289.456 46.504 290.672 47.592C291.952 48.616 293.648 49.48 295.76 50.184C297.872 50.888 300.208 51.592 302.768 52.296C305.328 53 307.856 53.832 310.352 54.792C312.848 55.752 315.152 57 317.264 58.536C319.376 60.008 321.072 61.928 322.352 64.296C323.632 66.664 324.272 69.608 324.272 73.128C324.272 77.672 323.056 81.512 320.624 84.648C318.192 87.72 314.928 90.056 310.832 91.656C306.736 93.192 302.192 93.96 297.2 93.96C293.424 93.96 289.648 93.544 285.872 92.712C282.16 91.816 278.608 90.568 275.216 88.968C271.888 87.304 268.88 85.352 266.192 83.112L273.008 69.576C275.312 71.624 277.904 73.416 280.784 74.952C283.664 76.488 286.576 77.704 289.52 78.6C292.464 79.432 295.088 79.848 297.392 79.848C300.016 79.848 302.064 79.368 303.536 78.408C305.072 77.384 305.84 75.912 305.84 73.992C305.84 72.328 305.2 70.984 303.92 69.96C302.64 68.872 300.944 67.976 298.832 67.272C296.72 66.568 294.384 65.896 291.824 65.256C289.328 64.552 286.8 63.752 284.24 62.856C281.744 61.896 279.44 60.712 277.328 59.304C275.216 57.832 273.52 55.944 272.24 53.64C271.024 51.336 270.416 48.456 270.416 45C270.416 40.84 271.504 37.224 273.68 34.152C275.92 31.016 279.056 28.616 283.088 26.952C287.184 25.224 291.92 24.36 297.296 24.36C302.224 24.36 307.056 25.064 311.792 26.472C316.528 27.88 320.656 29.704 324.176 31.944L317.552 45.768Z" fill="black"/>
<path d="M6.528 25.704V24.704H5.528V25.704H6.528ZM25.632 25.704L26.5295 25.2629L26.2547 24.704H25.632V25.704ZM45.12 65.352L44.2226 65.7931L45.1222 67.6235L46.0183 65.7914L45.12 65.352ZM64.512 25.704V24.704H63.8879L63.6137 25.2646L64.512 25.704ZM83.616 25.704H84.616V24.704H83.616V25.704ZM83.616 93V94H84.616V93H83.616ZM68.064 93L67.064 93.0022L67.0662 94H68.064V93ZM67.968 49.896L68.968 49.8938L67.0638 49.4689L67.968 49.896ZM50.784 86.28V87.28H51.4176L51.6882 86.7071L50.784 86.28ZM39.456 86.28L38.5527 86.709L38.8239 87.28H39.456V86.28ZM22.176 49.896L23.0793 49.467L21.176 49.896H22.176ZM22.176 93V94H23.176V93H22.176ZM6.528 93H5.528V94H6.528V93ZM6.528 26.704H25.632V24.704H6.528V26.704ZM24.7346 26.1451L44.2226 65.7931L46.0175 64.9109L26.5295 25.2629L24.7346 26.1451ZM46.0183 65.7914L65.4103 26.1434L63.6137 25.2646L44.2217 64.9126L46.0183 65.7914ZM64.512 26.704H83.616V24.704H64.512V26.704ZM82.616 25.704V93H84.616V25.704H82.616ZM83.616 92H68.064V94H83.616V92ZM69.064 92.9978L68.968 49.8938L66.968 49.8982L67.064 93.0022L69.064 92.9978ZM67.0638 49.4689L49.8798 85.8529L51.6882 86.7071L68.8722 50.3231L67.0638 49.4689ZM50.784 85.28H39.456V87.28H50.784V85.28ZM40.3593 85.851L23.0793 49.467L21.2727 50.325L38.5527 86.709L40.3593 85.851ZM21.176 49.896V93H23.176V49.896H21.176ZM22.176 92H6.528V94H22.176V92ZM7.528 93V25.704H5.528V93H7.528ZM118.604 25.704V24.704H117.945L117.685 25.3094L118.604 25.704ZM136.652 25.704L137.574 25.3172L137.316 24.704H136.652V25.704ZM164.876 93V94H166.379L165.798 92.6132L164.876 93ZM146.156 93L145.221 93.357L145.467 94H146.156V93ZM127.148 43.272L128.082 42.915L127.157 40.4956L126.216 42.9087L127.148 43.272ZM107.756 93V94H108.439L108.687 93.3633L107.756 93ZM89.7075 93L88.7886 92.6054L88.1898 94H89.7075V93ZM106.988 67.656V66.656H105.988V67.656H106.988ZM146.252 67.656H147.252V66.656H146.252V67.656ZM146.252 80.904V81.904H147.252V80.904H146.252ZM106.988 80.904H105.988V81.904H106.988V80.904ZM118.604 26.704H136.652V24.704H118.604V26.704ZM135.729 26.0908L163.953 93.3868L165.798 92.6132L137.574 25.3172L135.729 26.0908ZM164.876 92H146.156V94H164.876V92ZM147.09 92.643L128.082 42.915L126.213 43.629L145.221 93.357L147.09 92.643ZM126.216 42.9087L106.824 92.6367L108.687 93.3633L128.079 43.6353L126.216 42.9087ZM107.756 92H89.7075V94H107.756V92ZM90.6264 93.3946L119.522 26.0985L117.685 25.3094L88.7886 92.6054L90.6264 93.3946ZM106.988 68.656H146.252V66.656H106.988V68.656ZM145.252 67.656V80.904H147.252V67.656H145.252ZM146.252 79.904H106.988V81.904H146.252V79.904ZM107.988 80.904V67.656H105.988V80.904H107.988ZM219.68 46.824L218.973 47.5311L219.751 48.3091L220.451 47.4606L219.68 46.824ZM211.328 41.352L210.934 42.2711L210.946 42.2759L210.957 42.2805L211.328 41.352ZM194.336 40.872L193.93 39.9582L193.93 39.9582L194.336 40.872ZM188.288 45.096L189.008 45.7901L189.008 45.7901L188.288 45.096ZM184.256 51.432L183.326 51.0648L183.322 51.0755L183.318 51.0863L184.256 51.432ZM184.352 67.272L183.422 67.6392L183.422 67.6392L184.352 67.272ZM188.384 73.704L187.652 74.3854L187.658 74.3918L187.664 74.3981L188.384 73.704ZM194.432 77.928L194.026 78.8419L194.035 78.8459L194.432 77.928ZM210.368 77.736L210.719 78.6724L210.73 78.6684L210.368 77.736ZM218.912 73.032L219.691 72.4044L219.085 71.6526L218.312 72.232L218.912 73.032ZM228.896 85.416L229.471 86.2342L230.345 85.62L229.675 84.7884L228.896 85.416ZM220.544 89.928L220.157 89.006L220.15 89.0089L220.544 89.928ZM210.656 93.096L210.439 92.1198L210.435 92.1207L210.656 93.096ZM186.56 91.656L186.18 92.5807L186.188 92.584L186.196 92.5872L186.56 91.656ZM175.136 84.264L175.829 83.5429L175.829 83.5429L175.136 84.264ZM167.552 73.128L168.475 72.7424L168.475 72.7424L167.552 73.128ZM175.424 34.536L174.745 33.8017L174.738 33.8082L175.424 34.536ZM187.232 27.24L186.877 26.3053L186.872 26.307L187.232 27.24ZM212 25.896L211.758 26.8661L211.762 26.8672L212 25.896ZM221.6 29.352L221.161 30.2502L221.168 30.2538L221.6 29.352ZM229.664 34.728L230.435 35.3646L231.04 34.6324L230.34 33.9908L229.664 34.728ZM213.728 58.728V57.728H212.728V58.728H213.728ZM228.896 58.728H229.896V57.728H228.896V58.728ZM228.896 85.416V86.416H229.896V85.416H228.896ZM213.728 85.416H212.728V86.416H213.728V85.416ZM220.387 46.1169C217.921 43.6503 215.022 41.7523 211.7 40.4235L210.957 42.2805C214.035 43.5117 216.704 45.2617 218.973 47.5311L220.387 46.1169ZM211.722 40.4329C208.473 39.0402 205.203 38.336 201.92 38.336V40.336C204.909 40.336 207.912 40.9758 210.934 42.2711L211.722 40.4329ZM201.92 38.336C199.041 38.336 196.373 38.8723 193.93 39.9582L194.742 41.7858C196.907 40.8237 199.295 40.336 201.92 40.336V38.336ZM193.93 39.9582C191.51 41.0338 189.387 42.5159 187.568 44.4019L189.008 45.7901C190.645 44.0921 192.555 42.7582 194.742 41.7858L193.93 39.9582ZM187.568 44.4019C185.745 46.2927 184.332 48.5174 183.326 51.0648L185.186 51.7992C186.101 49.4826 187.375 47.4833 189.008 45.7901L187.568 44.4019ZM183.318 51.0863C182.378 53.6382 181.912 56.3803 181.912 59.304H183.912C183.912 56.5957 184.343 54.0898 185.195 51.7777L183.318 51.0863ZM181.912 59.304C181.912 62.2969 182.411 65.0789 183.422 67.6392L185.282 66.9048C184.373 64.6011 183.912 62.0711 183.912 59.304H181.912ZM183.422 67.6392C184.427 70.1837 185.837 72.4351 187.652 74.3854L189.116 73.0226C187.476 71.2609 186.198 69.2243 185.282 66.9048L183.422 67.6392ZM187.664 74.3981C189.483 76.2841 191.606 77.7662 194.026 78.8418L194.838 77.0142C192.651 76.0418 190.741 74.7079 189.104 73.0099L187.664 74.3981ZM194.035 78.8459C196.537 79.9276 199.233 80.464 202.112 80.464V78.464C199.488 78.464 197.064 77.9764 194.829 77.0101L194.035 78.8459ZM202.112 80.464C204.698 80.464 207.572 79.8527 210.719 78.6723L210.017 76.7997C207.021 77.9233 204.391 78.464 202.112 78.464V80.464ZM210.73 78.6684C213.947 77.421 216.876 75.8095 219.512 73.832L218.312 72.232C215.829 74.0945 213.062 75.619 210.007 76.8036L210.73 78.6684ZM218.134 73.6596L228.118 86.0436L229.675 84.7884L219.691 72.4044L218.134 73.6596ZM228.321 84.5978C226.022 86.2134 223.304 87.6845 220.157 89.006L220.931 90.85C224.185 89.4835 227.034 87.9466 229.471 86.2342L228.321 84.5978ZM220.15 89.0089C217.074 90.3275 213.837 91.3648 210.439 92.1198L210.873 94.0722C214.388 93.2912 217.743 92.2165 220.938 90.8471L220.15 89.0089ZM210.435 92.1207C207.108 92.874 203.918 93.248 200.864 93.248V95.248C204.082 95.248 207.42 94.854 210.877 94.0713L210.435 92.1207ZM200.864 93.248C195.859 93.248 191.216 92.4038 186.925 90.7248L186.196 92.5872C190.737 94.3642 195.63 95.248 200.864 95.248V93.248ZM186.941 90.7313C182.7 88.9851 178.999 86.5886 175.829 83.5429L174.443 84.9851C177.801 88.2114 181.716 90.7429 186.18 92.5807L186.941 90.7313ZM175.829 83.5429C172.667 80.5044 170.216 76.9075 168.475 72.7424L166.63 73.5136C168.473 77.9245 171.078 81.7516 174.443 84.9851L175.829 83.5429ZM168.475 72.7424C166.737 68.5838 165.864 64.1077 165.864 59.304H163.864C163.864 64.3563 164.783 69.0962 166.63 73.5136L168.475 72.7424ZM165.864 59.304C165.864 54.5049 166.767 50.067 168.564 45.9783L166.733 45.1737C164.817 49.533 163.864 54.2471 163.864 59.304H165.864ZM168.564 45.9783C170.366 41.876 172.881 38.3069 176.11 35.2638L174.738 33.8082C171.312 37.0371 168.642 40.828 166.733 45.1737L168.564 45.9783ZM176.103 35.2703C179.399 32.2235 183.225 29.8573 187.592 28.173L186.872 26.307C182.279 28.0787 178.234 30.5765 174.745 33.8017L176.103 35.2703ZM187.588 28.1747C192.008 26.4937 196.814 25.648 202.016 25.648V23.648C196.594 23.648 191.544 24.5303 186.877 26.3053L187.588 28.1747ZM202.016 25.648C205.26 25.648 208.507 26.0534 211.758 26.8661L212.243 24.9259C208.838 24.0746 205.429 23.648 202.016 23.648V25.648ZM211.762 26.8672C215.087 27.6829 218.22 28.811 221.161 30.2502L222.04 28.4538C218.965 26.949 215.697 25.7731 212.238 24.9248L211.762 26.8672ZM221.168 30.2538C224.159 31.687 226.763 33.4254 228.989 35.4651L230.34 33.9908C227.957 31.8066 225.185 29.961 222.032 28.4502L221.168 30.2538ZM228.893 34.0914L218.909 46.1874L220.451 47.4606L230.435 35.3646L228.893 34.0914ZM213.728 59.728H228.896V57.728H213.728V59.728ZM227.896 58.728V85.416H229.896V58.728H227.896ZM228.896 84.416H213.728V86.416H228.896V84.416ZM214.728 85.416V58.728H212.728V85.416H214.728ZM240.528 25.704V24.704H239.528V25.704H240.528ZM258.096 25.704H259.096V24.704H258.096V25.704ZM258.096 93V94H259.096V93H258.096ZM240.528 93H239.528V94H240.528V93ZM240.528 26.704H258.096V24.704H240.528V26.704ZM257.096 25.704V93H259.096V25.704H257.096ZM258.096 92H240.528V94H258.096V92ZM241.528 93V25.704H239.528V93H241.528ZM317.552 45.768L317.024 46.6173L317.972 47.2063L318.454 46.2001L317.552 45.768ZM309.968 42.024L309.585 42.9477L309.599 42.9533L309.612 42.9585L309.968 42.024ZM302.288 39.528L302.034 40.4951L302.049 40.499L302.063 40.5024L302.288 39.528ZM290.768 39.816L291.283 40.6735L291.298 40.6642L291.313 40.6544L290.768 39.816ZM290.672 47.592L290.005 48.3372L290.026 48.3556L290.048 48.3729L290.672 47.592ZM295.76 50.184L295.444 51.1327L295.444 51.1327L295.76 50.184ZM310.352 54.792L310.711 53.8587L310.711 53.8587L310.352 54.792ZM317.264 58.536L316.676 59.3447L316.684 59.3506L316.692 59.3564L317.264 58.536ZM322.352 64.296L321.473 64.7715L321.473 64.7715L322.352 64.296ZM320.624 84.648L321.408 85.2687L321.414 85.2608L320.624 84.648ZM310.832 91.656L311.183 92.5924L311.196 92.5875L310.832 91.656ZM285.872 92.712L285.638 93.6841L285.647 93.6864L285.657 93.6886L285.872 92.712ZM275.216 88.968L274.769 89.8624L274.779 89.8675L274.79 89.8724L275.216 88.968ZM266.192 83.112L265.299 82.6623L264.942 83.3717L265.552 83.8802L266.192 83.112ZM273.008 69.576L273.673 68.8286L272.7 67.9642L272.115 69.1263L273.008 69.576ZM280.784 74.952L281.255 74.0696L281.255 74.0696L280.784 74.952ZM289.52 78.6L289.229 79.5567L289.239 79.5596L289.248 79.5623L289.52 78.6ZM303.536 78.408L304.083 79.2457L304.091 79.24L303.536 78.408ZM303.92 69.96L303.273 70.7219L303.284 70.7316L303.296 70.7409L303.92 69.96ZM298.832 67.272L298.516 68.2207L298.516 68.2207L298.832 67.272ZM291.824 65.256L291.553 66.2184L291.567 66.2225L291.582 66.2261L291.824 65.256ZM284.24 62.856L283.881 63.7893L283.896 63.7948L283.91 63.7999L284.24 62.856ZM277.328 59.304L276.756 60.1244L276.765 60.1303L276.774 60.136L277.328 59.304ZM272.24 53.64L271.356 54.1068L271.361 54.1163L271.366 54.1256L272.24 53.64ZM273.68 34.152L272.867 33.5708L272.864 33.574L273.68 34.152ZM283.088 26.952L283.47 27.8764L283.477 27.8734L283.088 26.952ZM311.792 26.472L312.077 25.5135L312.077 25.5135L311.792 26.472ZM324.176 31.944L325.078 32.3761L325.461 31.5764L324.713 31.1003L324.176 31.944ZM318.08 44.9187C315.656 43.4118 313.07 42.1356 310.324 41.0895L309.612 42.9585C312.242 43.9604 314.712 45.1802 317.024 46.6173L318.08 44.9187ZM310.351 41.1003C307.682 39.9933 305.069 39.1433 302.513 38.5536L302.063 40.5024C304.5 41.0647 307.007 41.8787 309.585 42.9477L310.351 41.1003ZM302.543 38.5609C300.055 37.9062 297.822 37.568 295.856 37.568V39.568C297.602 39.568 299.658 39.8698 302.034 40.4951L302.543 38.5609ZM295.856 37.568C293.622 37.568 291.717 38.0069 290.223 38.9776L291.313 40.6544C292.38 39.9611 293.866 39.568 295.856 39.568V37.568ZM290.254 38.9585C288.633 39.9308 287.848 41.4971 287.848 43.464H289.848C289.848 42.1029 290.343 41.2372 291.283 40.6735L290.254 38.9585ZM287.848 43.464C287.848 45.4061 288.573 47.0553 290.005 48.3372L291.339 46.8468C290.34 45.9527 289.848 44.8499 289.848 43.464H287.848ZM290.048 48.3729C291.446 49.4917 293.258 50.4039 295.444 51.1327L296.076 49.2353C294.039 48.5561 292.458 47.7403 291.297 46.8111L290.048 48.3729ZM295.444 51.1327C297.576 51.8433 299.929 52.5523 302.503 53.2602L303.033 51.3318C300.487 50.6316 298.169 49.9327 296.076 49.2353L295.444 51.1327ZM302.503 53.2602C305.031 53.9554 307.528 54.7771 309.993 55.7253L310.711 53.8587C308.185 52.8869 305.625 52.0446 303.033 51.3318L302.503 53.2602ZM309.993 55.7253C312.41 56.6548 314.636 57.8613 316.676 59.3447L317.852 57.7273C315.668 56.1387 313.287 54.8492 310.711 53.8587L309.993 55.7253ZM316.692 59.3564C318.67 60.735 320.263 62.5345 321.473 64.7715L323.232 63.8205C321.881 61.3215 320.082 59.281 317.836 57.7156L316.692 59.3564ZM321.473 64.7715C322.653 66.9554 323.272 69.7246 323.272 73.128H325.272C325.272 69.4914 324.611 66.3726 323.232 63.8205L321.473 64.7715ZM323.272 73.128C323.272 77.4838 322.111 81.0994 319.834 84.0352L321.414 85.2608C324.002 81.9246 325.272 77.8602 325.272 73.128H323.272ZM319.84 84.0273C317.531 86.9439 314.42 89.181 310.468 90.7245L311.196 92.5875C315.437 90.931 318.853 88.4961 321.408 85.2687L319.84 84.0273ZM310.481 90.7197C306.512 92.2081 302.089 92.96 297.2 92.96V94.96C302.295 94.96 306.96 94.1759 311.183 92.5923L310.481 90.7197ZM297.2 92.96C293.498 92.96 289.794 92.5522 286.087 91.7354L285.657 93.6886C289.502 94.5358 293.35 94.96 297.2 94.96V92.96ZM286.107 91.7399C282.46 90.8596 278.972 89.634 275.643 88.0636L274.79 89.8724C278.244 91.502 281.861 92.7724 285.638 93.6841L286.107 91.7399ZM275.663 88.0736C272.4 86.4419 269.458 84.5314 266.832 82.3438L265.552 83.8802C268.303 86.1726 271.376 88.1661 274.769 89.8624L275.663 88.0736ZM267.085 83.5617L273.901 70.0257L272.115 69.1263L265.299 82.6623L267.085 83.5617ZM272.344 70.3234C274.71 72.4269 277.368 74.2634 280.314 75.8344L281.255 74.0696C278.44 72.5686 275.914 70.8211 273.673 68.8286L272.344 70.3234ZM280.314 75.8344C283.247 77.3991 286.219 78.6407 289.229 79.5567L289.811 77.6433C286.933 76.7673 284.081 75.5769 281.255 74.0696L280.314 75.8344ZM289.248 79.5623C292.254 80.4117 294.972 80.848 297.392 80.848V78.848C295.205 78.848 292.675 78.4523 289.792 77.6377L289.248 79.5623ZM297.392 80.848C300.121 80.848 302.386 80.3518 304.083 79.2456L302.99 77.5704C301.742 78.3842 299.912 78.848 297.392 78.848V80.848ZM304.091 79.24C305.918 78.0219 306.84 76.2303 306.84 73.992H304.84C304.84 75.5937 304.226 76.7461 302.982 77.5759L304.091 79.24ZM306.84 73.992C306.84 72.0296 306.066 70.3962 304.545 69.1791L303.296 70.7409C304.334 71.5718 304.84 72.6264 304.84 73.992H306.84ZM304.568 69.1981C303.164 68.005 301.345 67.0553 299.148 66.3233L298.516 68.2207C300.544 68.8967 302.116 69.739 303.273 70.7219L304.568 69.1981ZM299.148 66.3233C297.008 65.6099 294.647 64.931 292.067 64.2859L291.582 66.2261C294.121 66.861 296.432 67.5261 298.516 68.2207L299.148 66.3233ZM292.096 64.2935C289.62 63.5954 287.112 62.8016 284.571 61.9121L283.91 63.7999C286.488 64.7024 289.036 65.5086 291.553 66.2184L292.096 64.2935ZM284.599 61.9227C282.168 60.9877 279.93 59.837 277.883 58.4719L276.774 60.136C278.95 61.587 281.32 62.8043 283.881 63.7893L284.599 61.9227ZM277.9 58.4836C275.916 57.1008 274.322 55.3285 273.114 53.1544L271.366 54.1256C272.718 56.5595 274.516 58.5632 276.756 60.1244L277.9 58.4836ZM273.125 53.1732C272.005 51.0524 271.416 48.3444 271.416 45H269.416C269.416 48.5676 270.043 51.6196 271.356 54.1068L273.125 53.1732ZM271.416 45C271.416 41.0243 272.452 37.6154 274.496 34.73L272.864 33.574C270.556 36.8326 269.416 40.6557 269.416 45H271.416ZM274.494 34.7332C276.611 31.7693 279.588 29.4785 283.47 27.8764L282.707 26.0276C278.525 27.7535 275.229 30.2627 272.867 33.5708L274.494 34.7332ZM283.477 27.8734C287.427 26.2069 292.026 25.36 297.296 25.36V23.36C291.814 23.36 286.941 24.2411 282.7 26.0306L283.477 27.8734ZM297.296 25.36C302.128 25.36 306.864 26.05 311.507 27.4305L312.077 25.5135C307.249 24.078 302.321 23.36 297.296 23.36V25.36ZM311.507 27.4305C316.17 28.8168 320.21 30.6056 323.639 32.7877L324.713 31.1003C321.102 28.8024 316.886 26.9432 312.077 25.5135L311.507 27.4305ZM323.274 31.5119L316.65 45.3359L318.454 46.2001L325.078 32.3761L323.274 31.5119Z" fill="black"/>
<path d="M126.92 105.224H127.448L135.224 122H134.672L127.184 105.776L119.816 122H119.24L126.92 105.224ZM122 116.408H132.416V116.888H122V116.408ZM162.549 105.224H163.029V122H162.549V105.224ZM198.893 105.224C200.941 105.224 202.517 105.704 203.621 106.664C204.741 107.608 205.301 108.944 205.301 110.672C205.301 112.432 204.741 113.8 203.621 114.776C202.517 115.752 200.941 116.24 198.893 116.24H193.685V122H193.205V105.224H198.893ZM198.893 115.76C200.781 115.76 202.237 115.32 203.261 114.44C204.301 113.544 204.821 112.288 204.821 110.672C204.821 109.088 204.301 107.864 203.261 107C202.237 106.136 200.781 105.704 198.893 105.704H193.685V115.76H198.893ZM200.261 115.904H200.861L205.301 122H204.701L200.261 115.904Z" fill="black"/>
<path d="M126.92 105.224V104.224H126.278L126.011 104.808L126.92 105.224ZM127.448 105.224L128.355 104.803L128.087 104.224H127.448V105.224ZM135.224 122V123H136.79L136.131 121.579L135.224 122ZM134.672 122L133.764 122.419L134.032 123H134.672V122ZM127.184 105.776L128.092 105.357L127.177 103.374L126.273 105.363L127.184 105.776ZM119.816 122V123H120.46L120.727 122.413L119.816 122ZM119.24 122L118.331 121.584L117.682 123H119.24V122ZM122 116.408V115.408H121V116.408H122ZM132.416 116.408H133.416V115.408H132.416V116.408ZM132.416 116.888V117.888H133.416V116.888H132.416ZM122 116.888H121V117.888H122V116.888ZM126.92 106.224H127.448V104.224H126.92V106.224ZM126.541 105.645L134.317 122.421L136.131 121.579L128.355 104.803L126.541 105.645ZM135.224 121H134.672V123H135.224V121ZM135.58 121.581L128.092 105.357L126.276 106.195L133.764 122.419L135.58 121.581ZM126.273 105.363L118.905 121.587L120.727 122.413L128.095 106.189L126.273 105.363ZM119.816 121H119.24V123H119.816V121ZM120.149 122.416L127.829 105.64L126.011 104.808L118.331 121.584L120.149 122.416ZM122 117.408H132.416V115.408H122V117.408ZM131.416 116.408V116.888H133.416V116.408H131.416ZM132.416 115.888H122V117.888H132.416V115.888ZM123 116.888V116.408H121V116.888H123ZM162.549 105.224V104.224H161.549V105.224H162.549ZM163.029 105.224H164.029V104.224H163.029V105.224ZM163.029 122V123H164.029V122H163.029ZM162.549 122H161.549V123H162.549V122ZM162.549 106.224H163.029V104.224H162.549V106.224ZM162.029 105.224V122H164.029V105.224H162.029ZM163.029 121H162.549V123H163.029V121ZM163.549 122V105.224H161.549V122H163.549ZM203.621 106.664L202.965 107.419L202.97 107.424L202.976 107.429L203.621 106.664ZM203.621 114.776L202.964 114.022L202.958 114.027L203.621 114.776ZM193.685 116.24V115.24H192.685V116.24H193.685ZM193.685 122V123H194.685V122H193.685ZM193.205 122H192.205V123H193.205V122ZM193.205 105.224V104.224H192.205V105.224H193.205ZM203.261 114.44L203.913 115.198L203.914 115.198L203.261 114.44ZM203.261 107L202.616 107.764L202.622 107.769L203.261 107ZM193.685 105.704V104.704H192.685V105.704H193.685ZM193.685 115.76H192.685V116.76H193.685V115.76ZM200.261 115.904V114.904H198.295L199.452 116.493L200.261 115.904ZM200.861 115.904L201.669 115.315L201.37 114.904H200.861V115.904ZM205.301 122V123H207.266L206.109 121.411L205.301 122ZM204.701 122L203.892 122.589L204.192 123H204.701V122ZM198.893 106.224C200.796 106.224 202.104 106.67 202.965 107.419L204.277 105.909C202.93 104.738 201.086 104.224 198.893 104.224V106.224ZM202.976 107.429C203.83 108.148 204.301 109.18 204.301 110.672H206.301C206.301 108.708 205.652 107.068 204.265 105.899L202.976 107.429ZM204.301 110.672C204.301 112.202 203.825 113.271 202.964 114.022L204.278 115.53C205.656 114.329 206.301 112.662 206.301 110.672H204.301ZM202.958 114.027C202.098 114.788 200.792 115.24 198.893 115.24V117.24C201.09 117.24 202.936 116.716 204.283 115.525L202.958 114.027ZM198.893 115.24H193.685V117.24H198.893V115.24ZM192.685 116.24V122H194.685V116.24H192.685ZM193.685 121H193.205V123H193.685V121ZM194.205 122V105.224H192.205V122H194.205ZM193.205 106.224H198.893V104.224H193.205V106.224ZM198.893 116.76C200.925 116.76 202.646 116.287 203.913 115.198L202.609 113.682C201.827 114.353 200.636 114.76 198.893 114.76V116.76ZM203.914 115.198C205.214 114.077 205.821 112.522 205.821 110.672H203.821C203.821 112.054 203.388 113.011 202.608 113.682L203.914 115.198ZM205.821 110.672C205.821 108.847 205.209 107.318 203.9 106.231L202.622 107.769C203.393 108.41 203.821 109.329 203.821 110.672H205.821ZM203.906 106.236C202.64 105.168 200.921 104.704 198.893 104.704V106.704C200.64 106.704 201.834 107.104 202.616 107.764L203.906 106.236ZM198.893 104.704H193.685V106.704H198.893V104.704ZM192.685 105.704V115.76H194.685V105.704H192.685ZM193.685 116.76H198.893V114.76H193.685V116.76ZM200.261 116.904H200.861V114.904H200.261V116.904ZM200.052 116.493L204.492 122.589L206.109 121.411L201.669 115.315L200.052 116.493ZM205.301 121H204.701V123H205.301V121ZM205.509 121.411L201.069 115.315L199.452 116.493L203.892 122.589L205.509 121.411Z" fill="black"/>
<path d="M237 114H327" stroke="black"/>
<path d="M0 114H90" stroke="black"/>
</svg>
